<svg width="134" height="48" viewBox="0 0 134 48" fill="none" xmlns="http://www.w3.org/2000/svg">
<path d="M32.4364 14.2431L16.5342 8.17114L0 14.4801V15.146C0 15.146 0 15.4056 0 15.857C0 19.0397 0 32.0414 0 35.9576V36.4655L16.5342 48L33.0684 36.4655V35.9576C33.0684 33.7117 33.0684 28.5088 33.0684 23.8702C33.0684 21.5452 33.0684 19.367 33.0684 17.7644C33.0684 16.9631 33.0684 16.3085 33.0684 15.857C33.0684 15.4056 33.0684 15.146 33.0684 15.146V14.4801L32.4364 14.2431ZM31.1272 15.857C31.1272 18.9156 31.1272 31.0369 31.1272 35.4611L16.5342 45.6525L1.92993 35.4611C1.92993 33.012 1.92993 28.2041 1.92993 23.8815C1.92993 21.5565 1.92993 19.3783 1.92993 17.7757C1.92993 16.9743 1.92993 16.3197 1.92993 15.8683C1.92993 15.857 1.92993 15.8344 1.92993 15.8232L16.5229 10.2591L31.1159 15.8232C31.1272 15.8344 31.1272 15.8457 31.1272 15.857Z" fill="#10A0C1"/>
<path d="M11.7715 14.0851L3.6003 17.2001V34.7614L16.5342 43.7903L29.4682 34.7614V17.1888L21.3083 14.0739C21.3083 14.909 21.3083 15.8458 21.3083 16.3875H11.7715C11.7715 15.8232 11.7715 14.8977 11.7715 14.0851ZM21.3083 17.2678C21.2857 19.5815 21.6469 22.9561 23.6445 25.2697C20.8681 28.9829 17.1098 34.6824 17.1098 39.4451C17.0195 39.4451 16.9518 39.4451 16.8841 39.4451V24.57C17.8208 24.4007 18.5319 23.5881 18.5319 22.6062C18.5319 21.5001 17.6403 20.6085 16.5342 20.6085C15.4282 20.6085 14.5366 21.5001 14.5366 22.6062C14.5366 23.5881 15.2476 24.412 16.1844 24.57V39.4451C16.1166 39.4451 16.0489 39.4451 15.9586 39.4451C15.9586 34.6824 12.1891 28.9829 9.42395 25.2697C11.4216 22.9561 11.7828 19.5815 11.7602 17.2678H21.3083Z" fill="#F4B651"/>
<path d="M11.2184 4.30005V9.45781L16.5342 7.42631L21.534 9.33367V4.30005L16.3762 5.98168L11.2184 4.30005Z" fill="#F4B651"/>
<path d="M24.5135 2.96826V5.24806C24.3104 5.32706 24.1749 5.53021 24.1749 5.75594C24.1749 5.98166 24.3104 6.18481 24.5135 6.26381L23.8815 7.75359H25.5857L24.9537 6.26381C25.1568 6.18481 25.2923 5.98166 25.2923 5.75594C25.2923 5.53021 25.1455 5.32706 24.9537 5.24806V2.82154L25.2697 2.71997L16.3762 0L7.494 2.73125L16.3762 5.6205L24.5135 2.96826ZM15.7329 2.64096C15.7329 2.42653 16.0263 2.25723 16.3875 2.25723C16.7486 2.25723 17.0421 2.42653 17.0421 2.64096C17.0421 2.8554 16.7486 3.02469 16.3875 3.02469C16.0263 3.02469 15.7329 2.84411 15.7329 2.64096Z" fill="#F4B651"/>
<path d="M43.1808 16.884V24.141C43.1808 25.0439 43.3501 25.7098 43.6887 26.1274C44.0498 26.5337 44.6254 26.7368 45.4042 26.7368C46.1716 26.7368 46.7472 26.5337 47.1197 26.1274C47.4808 25.7211 47.6614 25.0552 47.6614 24.141V16.884H50.0541V24.4119C50.0541 25.8565 49.6478 26.94 48.8352 27.6849C48.0903 28.4298 46.9504 28.8022 45.3929 28.8022C43.8354 28.8022 42.6955 28.4298 41.9506 27.6849C41.138 26.94 40.7317 25.8565 40.7317 24.4119V18.1707C40.7317 17.8321 40.8446 17.5386 41.0816 17.279C41.3186 17.0195 41.6008 16.8953 41.9393 16.8953H43.1808V16.884Z" fill="#F4B651"/>
<path d="M52.2323 28.5201V18.1256C52.2323 17.787 52.3452 17.5048 52.5822 17.2678C52.8192 17.0308 53.1013 16.918 53.4399 16.918H54.6363V28.5201H52.2323Z" fill="#F4B651"/>
<path d="M65.5161 28.5201V18.972H62.0738V18.1256C62.0738 17.787 62.1867 17.5048 62.4237 17.2678C62.6607 17.0308 62.9429 16.918 63.2814 16.918H71.3172V18.972H67.9088V28.5201H65.5161Z" fill="#F4B651"/>
<path d="M73.4841 28.5201V18.1256C73.4841 17.787 73.597 17.5048 73.834 17.2678C74.071 17.0308 74.3532 16.918 74.6917 16.918H81.9149V18.9043H75.8429V21.3986H80.3687V22.1773C80.3687 22.5159 80.2558 22.7981 80.0188 23.0351C79.7818 23.2721 79.4997 23.3849 79.1611 23.3849H75.8542V26.3532H81.9262V28.5088H73.4841V28.5201Z" fill="#F4B651"/>
<path d="M84.048 24.9086H86.4068C86.4971 25.5858 86.7567 26.0598 87.1855 26.3306C87.637 26.6466 88.2577 26.8047 89.0365 26.8047C89.7362 26.8047 90.2666 26.6805 90.6278 26.4322C90.989 26.1839 91.1695 25.8228 91.1695 25.3487C91.1695 24.6264 90.1538 24.0396 88.1336 23.5994L88.0658 23.5655L87.795 23.4978C86.6438 23.2495 85.8876 22.9899 85.5039 22.7191C85.0524 22.4708 84.7364 22.1096 84.5559 21.6356C84.3301 21.2293 84.2173 20.7101 84.2173 20.0781C84.2173 18.9721 84.601 18.1143 85.3685 17.4823C86.1359 16.8728 87.242 16.5681 88.7092 16.5681C90.0861 16.5681 91.1357 16.8841 91.8806 17.5162C92.648 18.2159 93.0543 19.1301 93.0995 20.2474H91.7451C91.226 20.2474 90.8535 20.0104 90.6278 19.5364C90.5149 19.3107 90.3569 19.1188 90.1538 18.9608C89.7475 18.6673 89.1945 18.5206 88.4947 18.5206C87.8176 18.5206 87.3322 18.6448 87.0388 18.8931C86.7002 19.1414 86.5309 19.4912 86.5309 19.9427C86.5309 20.5521 87.1855 21.0036 88.4834 21.297C88.8672 21.4099 89.1493 21.4776 89.3299 21.5002C89.7362 21.6356 90.0861 21.7372 90.3908 21.8162C90.6955 21.8952 90.9325 21.9516 91.1131 21.9968C91.4291 22.1322 91.7451 22.2676 92.0611 22.4031C92.5126 22.6739 92.8625 23.0238 93.1108 23.4527C93.3591 23.9267 93.4832 24.4459 93.4832 25.0102C93.4832 26.2291 93.0769 27.1658 92.2643 27.843C91.4517 28.475 90.3118 28.791 88.822 28.791C87.2871 28.791 86.1472 28.4637 85.3797 27.8091C84.5671 27.1545 84.1157 26.1952 84.048 24.9086Z" fill="#F4B651"/>
<path d="M99.1376 28.5201V18.972H95.6953V18.1256C95.6953 17.787 95.8081 17.5048 96.0451 17.2678C96.2822 17.0308 96.5643 16.918 96.9029 16.918H104.939V18.972H101.53V28.5201H99.1376Z" fill="#F4B651"/>
<path d="M107.117 28.5201V18.1256C107.117 17.787 107.23 17.5048 107.467 17.2678C107.704 17.0308 107.986 16.918 108.324 16.918H109.51V28.5201H107.117Z" fill="#F4B651"/>
<path d="M111.338 28.5201V18.1255C111.338 17.7869 111.451 17.5048 111.688 17.2678C111.925 17.0307 112.207 16.9066 112.546 16.884H113.832L118.561 24.8859V16.884H120.92V28.5201H118.459L113.697 20.5182V28.5201H111.338Z" fill="#F4B651"/>
<path d="M131.732 27.1319C131.326 27.7188 130.84 28.1476 130.276 28.4185C129.689 28.6668 129.046 28.791 128.357 28.791C126.687 28.791 125.378 28.2379 124.407 27.1319C123.414 26.0484 122.917 24.5699 122.917 22.6739C122.917 20.8116 123.403 19.3332 124.373 18.2497C125.389 17.1211 126.721 16.5568 128.391 16.5568C129.836 16.5568 131.021 16.9066 131.969 17.6064C132.894 18.3513 133.447 19.3219 133.628 20.5069H132.003C131.529 20.5069 131.179 20.2925 130.953 19.8636C130.795 19.5927 130.569 19.3444 130.276 19.1187C129.825 18.8027 129.226 18.6447 128.493 18.6447C127.522 18.6447 126.755 18.9946 126.202 19.6943C125.637 20.4392 125.355 21.4324 125.355 22.6626C125.355 23.9266 125.649 24.9085 126.236 25.6308C126.8 26.3306 127.601 26.6804 128.628 26.6804C129.396 26.6804 130.028 26.466 130.513 26.0371C131.01 25.5857 131.326 24.9649 131.461 24.1862H130.039C129.7 24.1862 129.418 24.0733 129.181 23.8363C128.944 23.5993 128.831 23.3172 128.831 22.9786V22.1998H133.662V28.5088H133.019C132.387 28.5088 131.992 28.1928 131.834 27.5608L131.732 27.1319Z" fill="#F4B651"/>
<path d="M68.0216 32.6847H69.1277L71.588 39.4564H70.1096L69.6581 38.0569H67.0171L66.5883 39.4564H65.1098L67.3557 33.1361C67.4686 32.8314 67.6943 32.6847 68.0216 32.6847ZM68.3376 34.039L67.3896 36.917H69.2744L68.3376 34.039Z" fill="#10A0C1"/>
<path d="M81.9826 37.1089C81.9149 37.8989 81.6214 38.5084 81.091 38.9598C80.5493 39.3887 79.8382 39.6144 78.9692 39.6144C77.9421 39.6144 77.1634 39.3097 76.6217 38.689C76.0799 38.1021 75.8091 37.2218 75.8091 36.0706C75.8091 34.8855 76.0799 34.0052 76.633 33.407C77.1973 32.7863 78.0099 32.4816 79.0708 32.4816C79.9398 32.4816 80.6283 32.696 81.1361 33.1362C81.6214 33.5538 81.8923 34.1519 81.96 34.9081H81.1136C80.7975 34.9081 80.5718 34.7727 80.4477 34.4905C80.3574 34.3212 80.2445 34.1745 80.1091 34.0391C79.8495 33.8472 79.4996 33.7456 79.0708 33.7456C78.4613 33.7456 77.9986 33.9375 77.6713 34.3325C77.3553 34.7275 77.1973 35.3031 77.1973 36.0706C77.1973 36.8042 77.3553 37.3685 77.6713 37.7635C77.976 38.1698 78.4275 38.3729 79.0256 38.3729C79.4432 38.3729 79.7931 38.2714 80.064 38.0569C80.3122 37.8651 80.4928 37.549 80.5944 37.1089H81.9826V37.1089Z" fill="#10A0C1"/>
<path d="M89.217 32.6847H90.323L92.7834 39.4564H91.3049L90.8535 38.0569H88.2125L87.7837 39.4564H86.3052L88.5511 33.1361C88.6753 32.8314 88.8897 32.6847 89.217 32.6847ZM89.533 34.039L88.585 36.917H90.4698L89.533 34.039Z" fill="#10A0C1"/>
<path d="M97.1286 39.4564V33.3957C97.1286 33.2038 97.1963 33.0346 97.3318 32.8878C97.4672 32.7524 97.6365 32.6847 97.8283 32.6847H99.7808C100.819 32.6847 101.598 32.9556 102.106 33.5086C102.614 34.0842 102.873 34.9419 102.873 36.0705C102.873 36.68 102.783 37.2217 102.602 37.707C102.388 38.2036 102.117 38.5873 101.778 38.8469C101.485 39.0727 101.18 39.2307 100.853 39.3209C100.537 39.4112 100.063 39.4564 99.4197 39.4564H97.1286ZM98.4942 38.2375H99.6116C100.255 38.2375 100.729 38.0682 101.034 37.7296C101.327 37.4136 101.462 36.8606 101.462 36.0705C101.462 35.3144 101.327 34.7501 101.045 34.4002C100.785 34.0503 100.368 33.8697 99.7808 33.8697H98.4829V38.2375H98.4942Z" fill="#10A0C1"/>
<path d="M107.196 39.4564V33.3957C107.196 33.2038 107.264 33.0346 107.399 32.8878C107.534 32.7524 107.704 32.6847 107.896 32.6847H112.105V33.8472H108.561V35.3031H111.202V35.7545C111.202 35.9464 111.135 36.1157 110.999 36.2511C110.864 36.3865 110.695 36.4543 110.503 36.4543H108.573V38.1923H112.117V39.4564H107.196V39.4564Z" fill="#10A0C1"/>
<path d="M116.383 39.4564V33.3957C116.383 33.2038 116.451 33.0346 116.586 32.8878C116.721 32.7524 116.891 32.6734 117.083 32.6621H118.437L119.78 37.8425L121.123 32.6621H123.188V39.4564H121.902V33.9826L120.525 39.4564H119.08L117.681 33.9826V39.4564H116.383Z" fill="#10A0C1"/>
<path d="M131.427 39.4564H130.028V36.9396L127.567 32.6847H129.283L130.716 35.5965L131.879 33.0797C132.014 32.8201 132.229 32.6847 132.533 32.6847H133.651L131.427 36.9396V39.4564Z" fill="#10A0C1"/>
<path d="M60.6856 35.653H40.7543V36.4543H60.6856V35.653Z" fill="#10A0C1"/>
</svg>
