<svg width="1115" height="401" viewBox="0 0 1115 401" fill="none" xmlns="http://www.w3.org/2000/svg">
<path d="M271.203 118.993L138.685 68.3931L0.899994 120.968V126.517C0.899994 126.517 0.899994 128.68 0.899994 132.442C0.899994 158.964 0.899994 267.312 0.899994 299.947V304.18L138.685 400.3L276.47 304.18V299.947C276.47 281.231 276.47 237.873 276.47 199.218C276.47 179.844 276.47 161.692 276.47 148.337C276.47 141.659 276.47 136.204 276.47 132.442C276.47 128.68 276.47 126.517 276.47 126.517V120.968L271.203 118.993ZM260.293 132.442C260.293 157.93 260.293 258.941 260.293 295.809L138.685 380.737L16.9828 295.809C16.9828 275.4 16.9828 235.334 16.9828 199.312C16.9828 179.938 16.9828 161.786 16.9828 148.431C16.9828 141.753 16.9828 136.298 16.9828 132.536C16.9828 132.442 16.9828 132.254 16.9828 132.16L138.591 85.7926L260.199 132.16C260.293 132.254 260.293 132.348 260.293 132.442Z" fill="#10A0C1"/>
<path d="M98.9955 117.676L30.9023 143.634V289.978L138.685 365.219L246.468 289.978V143.54L178.469 117.582C178.469 124.542 178.469 132.348 178.469 136.862H98.9955C98.9955 132.16 98.9955 124.448 98.9955 117.676ZM178.469 144.198C178.281 163.479 181.29 191.6 197.937 210.881C174.801 241.824 143.482 289.32 143.482 329.009C142.729 329.009 142.165 329.009 141.601 329.009V205.05C149.407 203.639 155.332 196.867 155.332 188.685C155.332 179.468 147.902 172.038 138.685 172.038C129.468 172.038 122.038 179.468 122.038 188.685C122.038 196.867 127.963 203.733 135.769 205.05V329.009C135.205 329.009 134.641 329.009 133.888 329.009C133.888 289.32 102.475 241.824 79.4328 210.881C96.0799 191.6 99.0895 163.479 98.9014 144.198H178.469Z" fill="#F4B651"/>
<path d="M94.387 36.1335V79.1149L138.685 62.1857L180.35 78.0804V36.1335L137.368 50.1471L94.387 36.1335Z" fill="#F4B651"/>
<path d="M205.179 25.0355V44.0338C203.486 44.6922 202.358 46.3851 202.358 48.2661C202.358 50.1472 203.486 51.8401 205.179 52.4984L199.912 64.9132H214.114L208.847 52.4984C210.54 51.8401 211.669 50.1472 211.669 48.2661C211.669 46.3851 210.446 44.6922 208.847 44.0338V23.8128L211.481 22.9664L137.368 0.299988L63.35 23.0604L137.368 47.1375L205.179 25.0355ZM132.007 22.308C132.007 20.521 134.453 19.1102 137.462 19.1102C140.472 19.1102 142.917 20.521 142.917 22.308C142.917 24.095 140.472 25.5057 137.462 25.5057C134.453 25.5057 132.007 24.0009 132.007 22.308Z" fill="#F4B651"/>
<path d="M360.74 141.001V201.476C360.74 209 362.151 214.549 364.972 218.029C367.982 221.414 372.779 223.107 379.268 223.107C385.664 223.107 390.46 221.414 393.564 218.029C396.574 214.643 398.078 209.094 398.078 201.476V141.001H418.017V203.733C418.017 215.771 414.631 224.8 407.86 231.008C401.652 237.215 392.153 240.319 379.174 240.319C366.195 240.319 356.696 237.215 350.489 231.008C343.717 224.8 340.331 215.771 340.331 203.733V151.723C340.331 148.901 341.272 146.456 343.247 144.292C345.222 142.129 347.573 141.095 350.394 141.095H360.74V141.001Z" fill="#F4B651"/>
<path d="M436.169 237.968V151.346C436.169 148.525 437.11 146.173 439.085 144.198C441.06 142.223 443.411 141.283 446.233 141.283H456.202V237.968H436.169Z" fill="#F4B651"/>
<path d="M546.868 237.968V158.4H518.182V151.346C518.182 148.525 519.122 146.173 521.098 144.198C523.073 142.223 525.424 141.283 528.245 141.283H595.21V158.4H566.806V237.968H546.868Z" fill="#F4B651"/>
<path d="M613.268 237.968V151.346C613.268 148.525 614.208 146.173 616.183 144.198C618.158 142.223 620.51 141.283 623.331 141.283H683.524V157.836H632.924V178.621H670.639V185.111C670.639 187.932 669.699 190.284 667.723 192.259C665.748 194.234 663.397 195.174 660.576 195.174H633.019V219.91H683.618V237.873H613.268V237.968Z" fill="#F4B651"/>
<path d="M701.3 207.871H720.956C721.709 213.514 723.872 217.464 727.446 219.722C731.208 222.355 736.381 223.672 742.87 223.672C748.702 223.672 753.122 222.637 756.132 220.568C759.141 218.499 760.646 215.489 760.646 211.539C760.646 205.52 752.182 200.629 735.346 196.961L734.782 196.679L732.525 196.115C722.932 194.046 716.63 191.882 713.432 189.625C709.67 187.556 707.037 184.546 705.532 180.596C703.651 177.21 702.711 172.884 702.711 167.617C702.711 158.4 705.908 151.252 712.304 145.985C718.699 140.907 727.916 138.367 740.143 138.367C751.617 138.367 760.364 141.001 766.571 146.268C772.967 152.099 776.353 159.717 776.729 169.028H765.443C761.116 169.028 758.013 167.053 756.132 163.103C755.191 161.222 753.874 159.623 752.181 158.306C748.796 155.861 744.187 154.638 738.356 154.638C732.713 154.638 728.669 155.673 726.223 157.742C723.402 159.811 721.991 162.727 721.991 166.489C721.991 171.567 727.446 175.329 738.262 177.775C741.46 178.715 743.811 179.28 745.316 179.468C748.702 180.596 751.617 181.443 754.157 182.101C756.696 182.759 758.671 183.23 760.176 183.606C762.809 184.735 765.443 185.863 768.076 186.992C771.838 189.249 774.754 192.165 776.823 195.739C778.892 199.689 779.927 204.015 779.927 208.718C779.927 218.875 776.541 226.681 769.769 232.324C762.997 237.591 753.498 240.225 741.083 240.225C728.293 240.225 718.793 237.497 712.398 232.042C705.626 226.587 701.864 218.593 701.3 207.871Z" fill="#F4B651"/>
<path d="M827.046 237.968V158.4H798.361V151.346C798.361 148.525 799.301 146.173 801.276 144.198C803.251 142.223 805.603 141.283 808.424 141.283H875.389V158.4H846.985V237.968H827.046Z" fill="#F4B651"/>
<path d="M893.541 237.968V151.346C893.541 148.525 894.481 146.173 896.456 144.198C898.431 142.223 900.782 141.283 903.604 141.283H913.479V237.968H893.541Z" fill="#F4B651"/>
<path d="M928.716 237.968V151.346C928.716 148.525 929.656 146.173 931.631 144.198C933.606 142.223 935.958 141.189 938.779 141.001H949.501L988.909 207.683V141.001H1008.57V237.968H988.062L948.372 171.285V237.968H928.716Z" fill="#F4B651"/>
<path d="M1098.67 226.399C1095.28 231.29 1091.24 234.864 1086.53 237.121C1081.64 239.19 1076.28 240.225 1070.54 240.225C1056.63 240.225 1045.72 235.616 1037.63 226.399C1029.35 217.37 1025.21 205.05 1025.21 189.249C1025.21 173.731 1029.26 161.41 1037.34 152.381C1045.81 142.976 1056.91 138.273 1070.83 138.273C1082.87 138.273 1092.74 141.189 1100.64 147.02C1108.35 153.227 1112.96 161.316 1114.47 171.191H1100.92C1096.97 171.191 1094.06 169.404 1092.18 165.83C1090.86 163.573 1088.98 161.504 1086.53 159.623C1082.77 156.989 1077.79 155.673 1071.67 155.673C1063.59 155.673 1057.19 158.588 1052.58 164.419C1047.88 170.627 1045.53 178.903 1045.53 189.155C1045.53 199.689 1047.97 207.871 1052.86 213.89C1057.57 219.722 1064.24 222.637 1072.8 222.637C1079.2 222.637 1084.46 220.85 1088.51 217.276C1092.65 213.514 1095.28 208.341 1096.41 201.852H1084.56C1081.74 201.852 1079.39 200.911 1077.41 198.936C1075.44 196.961 1074.5 194.61 1074.5 191.788V185.299H1114.75V237.874H1109.39C1104.12 237.874 1100.83 235.24 1099.51 229.973L1098.67 226.399Z" fill="#F4B651"/>
<path d="M567.747 272.672H576.964L597.467 329.103H585.146L581.384 317.441H559.376L555.802 329.103H543.482L562.198 276.435C563.138 273.895 565.019 272.672 567.747 272.672ZM570.38 283.959L562.48 307.942H578.187L570.38 283.959Z" fill="#10A0C1"/>
<path d="M684.088 309.541C683.524 316.124 681.079 321.203 676.658 324.965C672.144 328.539 666.219 330.42 658.977 330.42C650.418 330.42 643.929 327.881 639.414 322.708C634.9 317.817 632.642 310.481 632.642 300.888C632.642 291.012 634.9 283.676 639.508 278.692C644.211 273.519 650.982 270.979 659.823 270.979C667.065 270.979 672.802 272.767 677.035 276.435C681.079 279.914 683.336 284.899 683.9 291.201H676.846C674.213 291.201 672.332 290.072 671.297 287.721C670.545 286.31 669.604 285.087 668.476 283.959C666.313 282.36 663.397 281.513 659.823 281.513C654.744 281.513 650.888 283.112 648.161 286.404C645.527 289.696 644.211 294.492 644.211 300.888C644.211 307.001 645.527 311.704 648.161 314.996C650.7 318.381 654.462 320.074 659.447 320.074C662.927 320.074 665.842 319.228 668.1 317.441C670.169 315.842 671.674 313.209 672.52 309.541H684.088V309.541Z" fill="#10A0C1"/>
<path d="M744.375 272.672H753.592L774.095 329.103H761.775L758.013 317.441H736.005L732.431 329.103H720.11L738.826 276.435C739.861 273.895 741.648 272.672 744.375 272.672ZM747.009 283.959L739.108 307.942H754.815L747.009 283.959Z" fill="#10A0C1"/>
<path d="M810.305 329.103V278.598C810.305 276.999 810.869 275.588 811.998 274.365C813.127 273.237 814.537 272.672 816.136 272.672H832.407C841.06 272.672 847.549 274.93 851.782 279.538C856.014 284.335 858.177 291.483 858.177 300.888C858.177 305.967 857.425 310.481 855.92 314.525C854.133 318.664 851.876 321.861 849.054 324.024C846.609 325.905 844.07 327.222 841.342 327.975C838.709 328.727 834.759 329.103 829.398 329.103H810.305ZM821.685 318.946H830.996C836.357 318.946 840.307 317.535 842.847 314.713C845.292 312.08 846.421 307.471 846.421 300.888C846.421 294.586 845.292 289.884 842.941 286.968C840.778 284.053 837.298 282.548 832.407 282.548H821.591V318.946H821.685Z" fill="#10A0C1"/>
<path d="M894.199 329.103V278.598C894.199 276.999 894.763 275.588 895.892 274.365C897.02 273.237 898.431 272.672 900.03 272.672H935.111V282.36H905.579V294.492H927.587V298.254C927.587 299.853 927.023 301.264 925.894 302.393C924.766 303.521 923.355 304.086 921.756 304.086H905.673V318.569H935.205V329.103H894.199V329.103Z" fill="#10A0C1"/>
<path d="M970.757 329.103V278.598C970.757 276.999 971.321 275.588 972.45 274.365C973.578 273.237 974.989 272.578 976.588 272.484H987.874L999.066 315.654L1010.26 272.484H1027.47V329.103H1016.75V283.488L1005.27 329.103H993.235L981.572 283.488V329.103H970.757Z" fill="#10A0C1"/>
<path d="M1096.13 329.103H1084.46V308.13L1063.96 272.672H1078.26L1090.2 296.938L1099.89 275.964C1101.02 273.801 1102.8 272.672 1105.34 272.672H1114.66L1096.13 308.13V329.103Z" fill="#10A0C1"/>
<path d="M506.614 297.408H340.519V304.086H506.614V297.408Z" fill="#10A0C1"/>
</svg>
